# xmcd
# Copyright (C) 1995-1998 Ti Kan
#
# Track frame offsets:
#       182
#       13170
#       21847
#       31205
#       42815
#       57942
#       68545
#       81855
#       91290
#       97607
#       109880
#       127252
#       135467
#       151325
#       162220
#
# Disc length: 2328 seconds
#
# Revision: 0
# Processed by: cddbd v1.5.2PL0 Copyright (c) Steve Scherf et al.
# Submitted via: CD-Import v1.0
#
DISCID=b409160f
DTITLE=Pixies - Doolittle
DYEAR=1989
DGENRE=
TTITLE0=Debaser
TTITLE1=Tame
TTITLE2=Wave Of Mutilation
TTITLE3=I Bleed
TTITLE4=Here Comes Your Man
TTITLE5=Dead
TTITLE6=Monkey Gone To Heaven
TTITLE7=Mr. Grieves
TTITLE8=Crackity Jones
TTITLE9=La La Love You
TTITLE10=No 13. Baby
TTITLE11=There Goes My Gun
TTITLE12=Hey
TTITLE13=Silver
TTITLE14=Gouge Away
EXTD=
EXTT0=
EXTT1=
EXTT2=
EXTT3=
EXTT4=
EXTT5=
EXTT6=
EXTT7=
EXTT8=
EXTT9=
EXTT10=
EXTT11=
EXTT12=
EXTT13=
EXTT14=
PLAYORDER=
